%
M48
M72
T01C0.0276
T02C0.0354
T03C0.0433
T04C0.0492
T05C0.0571
T06C0.0689
T07C0.1260
%
T01
X9461Y20458
X11461Y20458
X23567Y21832
X24567Y21832
X26567Y24832
X25567Y24832
X25567Y21832
X26567Y21832
X24567Y24832
X23567Y24832
X13748Y23962
X11701Y23962
X12626Y21855
X13650Y21855
X19500Y10851
X20500Y10851
X21500Y10851
X29539Y13706
X31539Y13706
X14000Y15946
X15000Y15946
X20000Y15946
X21000Y15946
X16000Y15946
X17000Y15946
X19000Y15946
X18000Y15946
X22000Y15946
X23000Y15946
X24000Y15946
X25000Y15946
X26000Y15946
X27000Y15946
X27000Y18946
X26000Y18946
X25000Y18946
X24000Y18946
X23000Y18946
X22000Y18946
X21000Y18946
X20000Y18946
X19000Y18946
X18000Y18946
X17000Y18946
X16000Y18946
X15000Y18946
X14000Y18946
X24610Y12406
X23634Y12406
X26366Y12406
X27390Y12406
X20992Y14434
X22016Y14434
X21992Y20458
X21016Y20458
X24728Y20458
X23752Y20458
X9378Y14434
X11543Y14434
X17177Y12977
X19177Y12977
X2492Y13273
X3492Y13273
X4492Y13273
X9949Y21855
X10972Y21855
X6665Y31993
X8665Y31993
X6665Y24592
X8665Y24592
X6583Y26009
X8748Y26009
X6665Y30576
X8665Y30576
X37469Y33174
X38492Y33174
X36350Y30891
X38350Y30891
X17177Y20458
X19177Y20458
X13988Y20458
X15988Y20458
X9461Y17446
X11461Y17446
X9461Y18952
X11461Y18952
X13988Y14434
X15988Y14434
X33122Y10576
X35122Y10576
X8665Y29158
X7665Y29158
X6665Y29158
X2728Y31993
X4728Y31993
X3453Y35340
X2429Y35340
X4728Y29158
X3728Y29158
X2728Y29158
X2728Y30576
X4728Y30576
X3453Y33568
X2429Y33568
X15161Y21832
X16161Y21832
X18161Y24832
X17161Y24832
X17161Y21832
X18161Y21832
X16161Y24832
X15161Y24832
X22154Y23962
X20106Y23962
X21031Y21855
X22055Y21855
X26386Y29670
X27409Y29670
X24535Y14099
X26465Y14099
X29732Y29670
X30756Y29670
X25224Y33095
X27272Y33095
X6665Y27426
X8665Y27426
X2728Y27426
X4728Y27426
X4949Y26009
X2508Y26009
X6665Y23174
X8665Y23174
X29539Y15399
X31539Y15399
X9461Y15940
X11461Y15940
X15988Y12938
X14988Y12938
X13988Y12938
X36350Y29473
X38350Y29473
X36350Y26206
X38350Y26206
X38350Y28036
X37350Y28036
X36350Y28036
X38350Y24769
X37350Y24769
X36350Y24769
X38350Y22938
X37350Y22938
X36350Y22938
X32413Y29473
X34413Y29473
X32413Y26206
X34413Y26206
X34413Y28036
X33413Y28036
X32413Y28036
X34413Y24769
X33413Y24769
X32413Y24769
X34413Y22938
X33413Y22938
X32413Y22938
X29539Y18706
X31539Y18706
X29539Y20359
X31539Y20359
X29539Y17052
X31539Y17052
X17177Y14434
X19177Y14434
X37469Y35340
X38492Y35340
X27331Y31481
X25165Y31481
X29244Y33095
X31244Y33095
X32413Y30891
X34413Y30891
X33122Y12190
X35122Y12190
X11827Y12938
X10827Y12938
X31244Y31481
X30244Y31481
X29244Y31481
X29539Y12190
X31539Y12190
T02
X28575Y23233
X30575Y23233
X8567Y11375
X5417Y11375
X13709Y9544
X16268Y9544
X13709Y11316
X16268Y11316
X19378Y35261
X19378Y38883
X9732Y35261
X9732Y38883
X27941Y34808
X24555Y34808
X21957Y32702
X21957Y34040
X4398Y23765
X3059Y23765
X24500Y10576
X25500Y10576
X26500Y10576
X29264Y10576
X30264Y10576
X31264Y10576
T03
X4787Y16694
X5787Y14694
X5787Y15694
X5787Y16694
X4787Y14694
X4787Y15694
X4787Y19328
X5787Y21328
X5787Y20328
X5787Y18328
X4787Y18328
X5787Y19328
X4787Y21328
X4787Y20328
X21500Y27588
X20500Y27588
X19500Y27588
X13429Y27564
X12429Y27564
X11429Y27564
X29571Y27556
X28571Y27556
X27571Y27556
X16465Y28820
X16465Y26820
X24535Y28820
X24535Y26820
X7484Y35462
X5484Y34462
X6484Y34462
X7484Y34462
X5484Y35462
X35213Y16576
X35213Y17576
X36213Y16576
X36213Y17576
X35213Y14576
X35213Y15576
X36213Y14576
X36213Y15576
X35213Y13576
X36213Y13576
X36213Y20182
X35213Y21182
X35213Y20182
X36213Y19182
X35213Y19182
X36213Y21182
T04
X19043Y30261
X21957Y30261
X10972Y30261
X13886Y30261
T05
X21720Y37544
X30776Y37544
T06
X33571Y32269
X33571Y34277
X35224Y34277
X35224Y32269
X15382Y34277
X17035Y34277
X12075Y34277
X13728Y34277
X13728Y32269
X12075Y32269
X17035Y32269
X15382Y32269
T07
X2567Y38129
X38433Y10133
X2567Y10133
X38433Y38129
X26248Y37544
M30
